<?xml version="1.0" encoding="UTF-8" standalone="no"?>
<svg
   xmlns:osb="http://www.openswatchbook.org/uri/2009/osb"
   xmlns:dc="http://purl.org/dc/elements/1.1/"
   xmlns:cc="http://creativecommons.org/ns#"
   xmlns:rdf="http://www.w3.org/1999/02/22-rdf-syntax-ns#"
   xmlns:svg="http://www.w3.org/2000/svg"
   xmlns="http://www.w3.org/2000/svg"
   xmlns:sodipodi="http://sodipodi.sourceforge.net/DTD/sodipodi-0.dtd"
   xmlns:inkscape="http://www.inkscape.org/namespaces/inkscape"
   inkscape:version="1.0 (1.0+r73+1)"
   sodipodi:docname="emoji_u1f61c.svg"
   xml:space="preserve"
   enable-background="new 0 0 128 128"
   viewBox="0 0 128 128"
   height="128px"
   width="128px"
   y="0px"
   x="0px"
   id="レイヤー_1"
   version="1.1"><metadata
   id="metadata25"><rdf:RDF><cc:Work
       rdf:about=""><dc:format>image/svg+xml</dc:format><dc:type
         rdf:resource="http://purl.org/dc/dcmitype/StillImage" /><dc:title></dc:title><cc:license
         rdf:resource="http://www.apache.org/licenses/LICENSE-2.0.txt" /></cc:Work></rdf:RDF></metadata><defs
   id="defs23"><pattern
     inkscape:collect="always"
     patternUnits="userSpaceOnUse"
     width="2"
     height="1"
     patternTransform="translate(0,0) scale(10,10)"
     id="Strips1_1"
     inkscape:stockid="Stripes 1:1"
     inkscape:isstock="true"><rect
       style="fill:black;stroke:none"
       x="0"
       y="-0.5"
       width="1"
       height="2"
       id="rect1838" /></pattern><linearGradient
     osb:paint="solid"
     id="linearGradient2798"><stop
       id="stop2796"
       offset="0"
       style="stop-color:#000000;stop-opacity:1;" /></linearGradient><filter
     height="1.4479262"
     y="-0.22396311"
     width="1.2909006"
     x="-0.14545032"
     id="filter11484"
     style="color-interpolation-filters:sRGB"
     inkscape:collect="always"><feGaussianBlur
       id="feGaussianBlur11486"
       stdDeviation="1.433329"
       inkscape:collect="always" /></filter><filter
     height="1.3930685"
     y="-0.19653426"
     width="1.4128451"
     x="-0.20642253"
     id="filter11488"
     style="color-interpolation-filters:sRGB"
     inkscape:collect="always"><feGaussianBlur
       id="feGaussianBlur11490"
       stdDeviation="1.433329"
       inkscape:collect="always" /></filter><filter
     height="1.3236673"
     y="-0.16183364"
     width="1.1140102"
     x="-0.057005111"
     id="filter11492"
     style="color-interpolation-filters:sRGB"
     inkscape:collect="always"><feGaussianBlur
       id="feGaussianBlur11494"
       stdDeviation="1.433329"
       inkscape:collect="always" /></filter><filter
     height="1.2775921"
     y="-0.13879606"
     width="1.1580631"
     x="-0.079031548"
     id="filter11496"
     style="color-interpolation-filters:sRGB"
     inkscape:collect="always"><feGaussianBlur
       id="feGaussianBlur11498"
       stdDeviation="1.433329"
       inkscape:collect="always" /></filter><filter
     height="1.0540601"
     y="-0.027030034"
     width="1.0539401"
     x="-0.026970033"
     id="filter11500"
     style="color-interpolation-filters:sRGB"
     inkscape:collect="always"><feGaussianBlur
       id="feGaussianBlur11502"
       stdDeviation="1.433329"
       inkscape:collect="always" /></filter></defs><sodipodi:namedview
   inkscape:current-layer="g12"
   inkscape:window-maximized="1"
   inkscape:window-y="0"
   inkscape:window-x="0"
   inkscape:cy="51.133793"
   inkscape:cx="-5.5418994"
   inkscape:zoom="5.59375"
   inkscape:pagecheckerboard="true"
   showgrid="false"
   id="namedview21"
   inkscape:window-height="1019"
   inkscape:window-width="1920"
   inkscape:pageshadow="2"
   inkscape:pageopacity="0"
   guidetolerance="10"
   gridtolerance="10"
   objecttolerance="10"
   borderopacity="1"
   bordercolor="#666666"
   pagecolor="#000000" />
<g
   style="stroke:#000000;stroke-opacity:1"
   id="g18">
	<g
   style="stroke:#000000;stroke-opacity:1"
   id="g12">
		<g
   style="stroke:#ffffff;stroke-opacity:1;fill:none;"
   id="g6">
			<g
   style="stroke:#ffffff;stroke-opacity:1;fill:none"
   id="g4">
				<path
   style="stroke:#ffffff;stroke-opacity:1;fill:none"
   id="path2"
   d="M15.95,32.79C35.2,3.96,67.36-9.2,101.44,8.14c22.82,11.61,30.74,39.16,20.83,71.54      c-4.09,13.36,6.13,15.62,5.47,22.71c-1.3,13.88-28.45,25.24-63.56,25.24c-35.1,0-62.63-11.34-63.57-25.24      C-1.27,74.38,3.66,51.22,15.95,32.79"
   fill="#FCC21B" />
			</g>
		</g>
		<path
   style="stroke:none;stroke-opacity:1;fill:#ffffff;fill-opacity:1;"
   id="path8"
   d="M72.62,63.69c0.11-1.9-5.63-1.97-6.84-2.35c-1.73-0.51-3.32-1.21-5.13-1.54    c-5.43-1.01-10.33-4.46-15.95-4.61C38.6,55.03,34.02,58.82,31,63.85c-1.6,2.65-2.53,6.46-1.42,9.54c0.69,1.91,1.7,3.45,3.61,4.74    c2.91,1.97,8.45,2.49,12.38,0.91c6.24-2.52,9.05-6.91,13.47-10.55C64.76,63.79,70.07,63.82,72.62,63.69z"
   fill="#D7598B" />
		<path
   style="stroke:none;stroke-opacity:0;fill:#ffffff;fill-opacity:1;"
   id="path10"
   d="M87.54,65.92c-40.13,0-55.3-15.64-55.93-16.31c-1.11-1.18-1.05-3.03,0.13-4.14    c1.17-1.11,3.02-1.05,4.13,0.12c0.23,0.23,14.46,14.47,51.68,14.47c0.23,0,0.42-0.03,0.68,0c1.61,0,2.92,1.3,2.93,2.92    c0.01,1.62-1.3,2.94-2.92,2.95C88.01,65.92,87.77,65.92,87.54,65.92z"
   fill="#2F2F2F" />
	<g
   inkscape:export-ydpi="192"
   inkscape:export-xdpi="192"
   id="g6114"
   style="stroke:#ffffff;stroke-opacity:1;fill:none;filter:url(#filter11500)">
			<g
   id="g6112"
   style="stroke:#ffffff;stroke-opacity:1;fill:none">
				<path
   fill="#FCC21B"
   d="M15.95,32.79C35.2,3.96,67.36-9.2,101.44,8.14c22.82,11.61,30.74,39.16,20.83,71.54      c-4.09,13.36,6.13,15.62,5.47,22.71c-1.3,13.88-28.45,25.24-63.56,25.24c-35.1,0-62.63-11.34-63.57-25.24      C-1.27,74.38,3.66,51.22,15.95,32.79"
   id="path6110"
   style="stroke:#ffffff;stroke-opacity:1;fill:none" />
			</g>
		</g><path
   inkscape:export-ydpi="192"
   inkscape:export-xdpi="192"
   fill="#D7598B"
   d="M72.62,63.69c0.11-1.9-5.63-1.97-6.84-2.35c-1.73-0.51-3.32-1.21-5.13-1.54    c-5.43-1.01-10.33-4.46-15.95-4.61C38.6,55.03,34.02,58.82,31,63.85c-1.6,2.65-2.53,6.46-1.42,9.54c0.69,1.91,1.7,3.45,3.61,4.74    c2.91,1.97,8.45,2.49,12.38,0.91c6.24-2.52,9.05-6.91,13.47-10.55C64.76,63.79,70.07,63.82,72.62,63.69z"
   id="path6116"
   style="stroke:none;stroke-opacity:1;fill:#ffffff;fill-opacity:1;filter:url(#filter11496)" /><path
   inkscape:export-ydpi="192"
   inkscape:export-xdpi="192"
   fill="#2F2F2F"
   d="M87.54,65.92c-40.13,0-55.3-15.64-55.93-16.31c-1.11-1.18-1.05-3.03,0.13-4.14    c1.17-1.11,3.02-1.05,4.13,0.12c0.23,0.23,14.46,14.47,51.68,14.47c0.23,0,0.42-0.03,0.68,0c1.61,0,2.92,1.3,2.93,2.92    c0.01,1.62-1.3,2.94-2.92,2.95C88.01,65.92,87.77,65.92,87.54,65.92z"
   id="path6118"
   style="stroke:none;stroke-opacity:0;fill:#ffffff;fill-opacity:1;filter:url(#filter11492)" /></g>
	<path
   style="stroke:none;stroke-opacity:1;fill:#fffdff;fill-opacity:1;"
   id="path14"
   d="M54.22,35.5c-3.13,4.09-8.41,5.29-11.79,2.72c-3.38-2.58-3.59-7.99-0.46-12.07   c3.12-4.11,8.39-5.31,11.77-2.71C57.11,26,57.33,31.43,54.22,35.5"
   fill="#2F2F2F" />
	<path
   style="stroke:none;stroke-opacity:1;fill:#ffffff;fill-opacity:1;"
   id="path16"
   d="M90.1,51.22c-0.41-0.05-0.81-0.19-1.18-0.44c-6.87-4.53-14.74-7.03-14.82-7.05   c-1.17-0.36-1.95-1.46-1.93-2.68c0.02-1.23,0.83-2.29,2.01-2.62c8.58-2.41,18.43-2.54,18.85-2.55c1.56-0.02,2.77,1.21,2.79,2.73   c0.02,1.53-1.21,2.78-2.74,2.8c-0.06-0.01-3.77,0.04-8.47,0.62c2.33,1.11,4.88,2.49,7.33,4.12c1.28,0.84,1.63,2.56,0.8,3.83   C92.15,50.9,91.11,51.34,90.1,51.22z"
   fill="#2F2F2F" />
<path
   inkscape:export-ydpi="192"
   inkscape:export-xdpi="192"
   fill="#2F2F2F"
   d="M54.22,35.5c-3.13,4.09-8.41,5.29-11.79,2.72c-3.38-2.58-3.59-7.99-0.46-12.07   c3.12-4.11,8.39-5.31,11.77-2.71C57.11,26,57.33,31.43,54.22,35.5"
   id="path6120"
   style="stroke:none;stroke-opacity:1;fill:#fffdff;fill-opacity:1;filter:url(#filter11488)" /><path
   inkscape:export-ydpi="192"
   inkscape:export-xdpi="192"
   fill="#2F2F2F"
   d="M90.1,51.22c-0.41-0.05-0.81-0.19-1.18-0.44c-6.87-4.53-14.74-7.03-14.82-7.05   c-1.17-0.36-1.95-1.46-1.93-2.68c0.02-1.23,0.83-2.29,2.01-2.62c8.58-2.41,18.43-2.54,18.85-2.55c1.56-0.02,2.77,1.21,2.79,2.73   c0.02,1.53-1.21,2.78-2.74,2.8c-0.06-0.01-3.77,0.04-8.47,0.62c2.33,1.11,4.88,2.49,7.33,4.12c1.28,0.84,1.63,2.56,0.8,3.83   C92.15,50.9,91.11,51.34,90.1,51.22z"
   id="path6122"
   style="stroke:none;stroke-opacity:1;fill:#ffffff;fill-opacity:1;filter:url(#filter11484)" /></g>
</svg>
